<svg width="82" height="19" viewBox="0 0 82 19" fill="none" xmlns="http://www.w3.org/2000/svg">
<path d="M4.292 13.584C3.676 13.584 3.124 13.484 2.636 13.284C2.148 13.084 1.756 12.788 1.46 12.396C1.172 12.004 1.02 11.532 1.004 10.98H3.188C3.22 11.292 3.328 11.532 3.512 11.7C3.696 11.86 3.936 11.94 4.232 11.94C4.536 11.94 4.776 11.872 4.952 11.736C5.128 11.592 5.216 11.396 5.216 11.148C5.216 10.94 5.144 10.768 5 10.632C4.864 10.496 4.692 10.384 4.484 10.296C4.284 10.208 3.996 10.108 3.62 9.996C3.076 9.828 2.632 9.66 2.288 9.492C1.944 9.324 1.648 9.076 1.4 8.748C1.152 8.42 1.028 7.992 1.028 7.464C1.028 6.68 1.312 6.068 1.88 5.628C2.448 5.18 3.188 4.956 4.1 4.956C5.028 4.956 5.776 5.18 6.344 5.628C6.912 6.068 7.216 6.684 7.256 7.476H5.036C5.02 7.204 4.92 6.992 4.736 6.84C4.552 6.68 4.316 6.6 4.028 6.6C3.78 6.6 3.58 6.668 3.428 6.804C3.276 6.932 3.2 7.12 3.2 7.368C3.2 7.64 3.328 7.852 3.584 8.004C3.84 8.156 4.24 8.32 4.784 8.496C5.328 8.68 5.768 8.856 6.104 9.024C6.448 9.192 6.744 9.436 6.992 9.756C7.24 10.076 7.364 10.488 7.364 10.992C7.364 11.472 7.24 11.908 6.992 12.3C6.752 12.692 6.4 13.004 5.936 13.236C5.472 13.468 4.924 13.584 4.292 13.584ZM16.0068 5.076V6.72H13.7748V13.5H11.7228V6.72H9.49081V5.076H16.0068ZM22.3407 13.584C21.5487 13.584 20.8207 13.4 20.1567 13.032C19.5007 12.664 18.9767 12.152 18.5847 11.496C18.2007 10.832 18.0087 10.088 18.0087 9.264C18.0087 8.44 18.2007 7.7 18.5847 7.044C18.9767 6.388 19.5007 5.876 20.1567 5.508C20.8207 5.14 21.5487 4.956 22.3407 4.956C23.1327 4.956 23.8567 5.14 24.5127 5.508C25.1767 5.876 25.6967 6.388 26.0727 7.044C26.4567 7.7 26.6487 8.44 26.6487 9.264C26.6487 10.088 26.4567 10.832 26.0727 11.496C25.6887 12.152 25.1687 12.664 24.5127 13.032C23.8567 13.4 23.1327 13.584 22.3407 13.584ZM22.3407 11.712C23.0127 11.712 23.5487 11.488 23.9487 11.04C24.3567 10.592 24.5607 10 24.5607 9.264C24.5607 8.52 24.3567 7.928 23.9487 7.488C23.5487 7.04 23.0127 6.816 22.3407 6.816C21.6607 6.816 21.1167 7.036 20.7087 7.476C20.3087 7.916 20.1087 8.512 20.1087 9.264C20.1087 10.008 20.3087 10.604 20.7087 11.052C21.1167 11.492 21.6607 11.712 22.3407 11.712ZM35.5303 7.788C35.5303 8.276 35.4183 8.724 35.1943 9.132C34.9703 9.532 34.6263 9.856 34.1623 10.104C33.6983 10.352 33.1223 10.476 32.4343 10.476H31.1623V13.5H29.1103V5.076H32.4343C33.1063 5.076 33.6743 5.192 34.1383 5.424C34.6023 5.656 34.9503 5.976 35.1823 6.384C35.4143 6.792 35.5303 7.26 35.5303 7.788ZM32.2783 8.844C32.6703 8.844 32.9623 8.752 33.1543 8.568C33.3463 8.384 33.4423 8.124 33.4423 7.788C33.4423 7.452 33.3463 7.192 33.1543 7.008C32.9623 6.824 32.6703 6.732 32.2783 6.732H31.1623V8.844H32.2783Z" fill="#1F2937"/>
<path d="M42.7095 12.612H44.5495V13.5H41.5895V7.916H42.7095V12.612ZM47.2614 7.916V13.5H46.1414V7.916H47.2614ZM53.3199 9.644C53.3199 9.94267 53.2479 10.2227 53.1039 10.484C52.9653 10.7453 52.7439 10.956 52.4399 11.116C52.1413 11.276 51.7626 11.356 51.3039 11.356H50.3679V13.5H49.2479V7.916H51.3039C51.7359 7.916 52.1039 7.99067 52.4079 8.14C52.7119 8.28933 52.9386 8.49467 53.0879 8.756C53.2426 9.01733 53.3199 9.31333 53.3199 9.644ZM51.2559 10.452C51.5653 10.452 51.7946 10.3827 51.9439 10.244C52.0933 10.1 52.1679 9.9 52.1679 9.644C52.1679 9.1 51.8639 8.828 51.2559 8.828H50.3679V10.452H51.2559ZM57.5871 13.556C57.0645 13.556 56.5845 13.4333 56.1471 13.188C55.7098 12.9427 55.3631 12.604 55.1071 12.172C54.8511 11.7347 54.7231 11.2413 54.7231 10.692C54.7231 10.148 54.8511 9.66 55.1071 9.228C55.3631 8.79067 55.7098 8.44933 56.1471 8.204C56.5845 7.95867 57.0645 7.836 57.5871 7.836C58.1151 7.836 58.5951 7.95867 59.0271 8.204C59.4645 8.44933 59.8085 8.79067 60.0591 9.228C60.3151 9.66 60.4431 10.148 60.4431 10.692C60.4431 11.2413 60.3151 11.7347 60.0591 12.172C59.8085 12.604 59.4645 12.9427 59.0271 13.188C58.5898 13.4333 58.1098 13.556 57.5871 13.556ZM57.5871 12.556C57.9231 12.556 58.2191 12.4813 58.4751 12.332C58.7311 12.1773 58.9311 11.9587 59.0751 11.676C59.2191 11.3933 59.2911 11.0653 59.2911 10.692C59.2911 10.3187 59.2191 9.99333 59.0751 9.716C58.9311 9.43333 58.7311 9.21733 58.4751 9.068C58.2191 8.91867 57.9231 8.844 57.5871 8.844C57.2511 8.844 56.9525 8.91867 56.6911 9.068C56.4351 9.21733 56.2351 9.43333 56.0911 9.716C55.9471 9.99333 55.8751 10.3187 55.8751 10.692C55.8751 11.0653 55.9471 11.3933 56.0911 11.676C56.2351 11.9587 56.4351 12.1773 56.6911 12.332C56.9525 12.4813 57.2511 12.556 57.5871 12.556ZM67.1724 7.916L65.1244 13.5H63.7644L61.7164 7.916H62.9164L64.4524 12.356L65.9804 7.916H67.1724ZM71.3159 13.556C70.7932 13.556 70.3132 13.4333 69.8759 13.188C69.4385 12.9427 69.0919 12.604 68.8359 12.172C68.5799 11.7347 68.4519 11.2413 68.4519 10.692C68.4519 10.148 68.5799 9.66 68.8359 9.228C69.0919 8.79067 69.4385 8.44933 69.8759 8.204C70.3132 7.95867 70.7932 7.836 71.3159 7.836C71.8439 7.836 72.3239 7.95867 72.7559 8.204C73.1932 8.44933 73.5372 8.79067 73.7879 9.228C74.0439 9.66 74.1719 10.148 74.1719 10.692C74.1719 11.2413 74.0439 11.7347 73.7879 12.172C73.5372 12.604 73.1932 12.9427 72.7559 13.188C72.3185 13.4333 71.8385 13.556 71.3159 13.556ZM71.3159 12.556C71.6519 12.556 71.9479 12.4813 72.2039 12.332C72.4599 12.1773 72.6599 11.9587 72.8039 11.676C72.9479 11.3933 73.0199 11.0653 73.0199 10.692C73.0199 10.3187 72.9479 9.99333 72.8039 9.716C72.6599 9.43333 72.4599 9.21733 72.2039 9.068C71.9479 8.91867 71.6519 8.844 71.3159 8.844C70.9799 8.844 70.6812 8.91867 70.4199 9.068C70.1639 9.21733 69.9639 9.43333 69.8199 9.716C69.6759 9.99333 69.6039 10.3187 69.6039 10.692C69.6039 11.0653 69.6759 11.3933 69.8199 11.676C69.9639 11.9587 70.1639 12.1773 70.4199 12.332C70.6812 12.4813 70.9799 12.556 71.3159 12.556ZM80.6611 13.5H79.5411L77.0051 9.668V13.5H75.8851V7.908H77.0051L79.5411 11.748V7.908H80.6611V13.5Z" fill="#7C6B6B"/>
<path d="M39.5 10.75L81.5 10.75" stroke="#D62828" stroke-width="0.5"/>
</svg>
